<svg width="19" height="20" viewBox="0 0 19 20" fill="none" xmlns="http://www.w3.org/2000/svg">
<path d="M18.4459 13.0156C17.9646 12.7812 17.3823 12.9883 17.1494 13.4727C16.505 14.8203 15.5036 15.9609 14.2498 16.7734C12.9649 17.6055 11.4743 18.0469 9.93719 18.0469C5.52756 18.0469 1.94086 14.4375 1.94086 10C1.94086 5.5625 5.52756 1.95312 9.93719 1.95312C11.4743 1.95312 12.9649 2.39453 14.2537 3.22266C15.5075 4.03125 16.5089 5.17578 17.1533 6.52344C17.3862 7.00781 17.9646 7.21484 18.4498 6.98047C18.9311 6.74609 19.1369 6.16406 18.9039 5.67578C18.1043 4 16.8622 2.58203 15.3017 1.57812C13.7025 0.546875 11.847 0 9.93719 0C7.2821 0 4.78615 1.03906 2.91129 2.92969C1.03254 4.81641 0 7.32812 0 10C0 12.6719 1.03254 15.1836 2.91129 17.0703C4.79004 18.9609 7.2821 20 9.93719 20C11.847 20 13.7025 19.4531 15.3017 18.418C16.8583 17.4102 18.1043 15.9922 18.9039 14.3203C19.133 13.832 18.9311 13.25 18.4459 13.0156Z" fill="#8B3A99"/>
<path d="M10.4535 13.8008C10.6437 13.9922 10.8921 14.0859 11.1405 14.0859C11.389 14.0859 11.6374 13.9922 11.8276 13.8008L14.2692 11.3438C14.6263 10.9844 14.8204 10.5078 14.8204 10.0039C14.8204 9.5 14.6224 9.01953 14.2692 8.66406L11.8276 6.20703C11.4472 5.82422 10.8339 5.82422 10.4535 6.20703C10.073 6.58984 10.073 7.20703 10.4535 7.58984L11.8858 9.03125H6.36989C5.83422 9.03125 5.39947 9.46875 5.39947 10.0078C5.39947 10.5469 5.83422 10.9844 6.36989 10.9844H11.8897L10.4573 12.4258C10.0769 12.8008 10.0769 13.418 10.4535 13.8008Z" fill="#8B3A99"/>
</svg>
