<svg width="20" height="20" viewBox="0 0 20 20" fill="none" xmlns="http://www.w3.org/2000/svg">
<circle cx="10" cy="10" r="10" fill="#EF910B"/>
<path d="M11.32 10.0003L13.7949 7.52535C14.0684 7.2519 14.0684 6.80856 13.7949 6.53554L13.465 6.2056C13.1914 5.93206 12.7481 5.93206 12.4751 6.2056L10.0003 8.68042L7.52535 6.20509C7.2519 5.93164 6.80856 5.93164 6.53554 6.20509L6.20509 6.53503C5.93164 6.80856 5.93164 7.2519 6.20509 7.52492L8.68042 10.0003L6.2056 12.4751C5.93206 12.7486 5.93206 13.192 6.2056 13.465L6.53554 13.7949C6.80899 14.0684 7.25232 14.0684 7.52535 13.7949L10.0003 11.32L12.4751 13.7949C12.7486 14.0684 13.192 14.0684 13.465 13.7949L13.7949 13.465C14.0684 13.1914 14.0684 12.7481 13.7949 12.4751L11.32 10.0003Z" fill="white"/>
</svg>
